<svg width="60" height="60" viewBox="0 0 60 60" fill="none" xmlns="http://www.w3.org/2000/svg">
<path d="M1 8.24101C1 4.54071 3.99969 1.54102 7.7 1.54102H51.7148C55.4151 1.54102 58.4148 4.54071 58.4148 8.24102V52.2558C58.4148 55.9561 55.4151 58.9558 51.7148 58.9558H7.7C3.99969 58.9558 1 55.9561 1 52.2558V8.24101Z" fill="white"/>
<path d="M1 8.24101C1 4.54071 3.99969 1.54102 7.7 1.54102H51.7148C55.4151 1.54102 58.4148 4.54071 58.4148 8.24102V52.2558C58.4148 55.9561 55.4151 58.9558 51.7148 58.9558H7.7C3.99969 58.9558 1 55.9561 1 52.2558V8.24101Z" stroke="#EBEBEB" stroke-width="2"/>
<path d="M12.5161 27.9552V19.5717C12.5161 18.4134 13.4551 17.4744 14.6135 17.4744H44.5434C45.7017 17.4744 46.6407 18.4134 46.6407 19.5717V38.732C46.6407 39.8903 45.7017 40.8293 44.5434 40.8293H14.6135C13.4551 40.8293 12.5161 39.8903 12.5161 38.732V27.9552Z" stroke="#007EE5" stroke-width="2.97074"/>
<path d="M24.3599 46.8845H35.0545" stroke="#007EE5" stroke-width="2.97074"/>
<path d="M29.3224 28.884C31.0785 28.884 32.5022 27.4604 32.5022 25.7042C32.5022 23.9481 31.0785 22.5244 29.3224 22.5244C27.5662 22.5244 26.1426 23.9481 26.1426 25.7042C26.1426 27.4604 27.5662 28.884 29.3224 28.884Z" stroke="#74AD23" stroke-width="2.97074" stroke-linejoin="round"/>
<path d="M24.3599 38.4568V36.711C24.3599 35.785 24.7146 34.8969 25.346 34.2421C25.9774 33.5873 26.8338 33.2195 27.7267 33.2195H31.0935C31.9865 33.2195 32.8428 33.5873 33.4743 34.2421C34.1057 34.8969 34.4604 35.785 34.4604 36.711V38.4568" stroke="#74AD23" stroke-width="2.97074" stroke-linejoin="round"/>
</svg>
 
 